HIERARCHY
ROOT Root
{
  OFFSET 0.0 0.0 0.0
  CHANNELS 6 Xposition Yposition Zposition Zrotation Yrotation Xrotation
  JOINT Hips
  {
    OFFSET 0.0 100.0 0.0
    CHANNELS 6 Xposition Yposition Zposition Zrotation Yrotation Xrotation
    JOINT Spine1
    {
      OFFSET -0.013727 5.003763 -0.053727
      CHANNELS 3 Zrotation Yrotation Xrotation
      JOINT Spine2
      {
        OFFSET -0.0 7.125301 -0.029825
        CHANNELS 3 Zrotation Yrotation Xrotation
        JOINT Chest
        {
          OFFSET -1e-06 7.550063 -0.815971
          CHANNELS 3 Zrotation Yrotation Xrotation
          JOINT Neck1
          {
            OFFSET -0.181677 26.311295 -0.553348
            CHANNELS 3 Zrotation Yrotation Xrotation
            JOINT Neck2
            {
              OFFSET -3e-06 7.709397 2.302585
              CHANNELS 3 Zrotation Yrotation Xrotation
              JOINT Head
              {
                OFFSET -5e-06 6.128916 1.953709
                CHANNELS 3 Zrotation Yrotation Xrotation
                JOINT HeadEnd
                {
                  OFFSET 0.003598 16.065403 -1.835379
                  CHANNELS 3 Zrotation Yrotation Xrotation
                }
                JOINT Jaw
                {
                  OFFSET 0.002637 0.475592 3.094941
                  CHANNELS 3 Zrotation Yrotation Xrotation
                }
                JOINT LeftEye
                {
                  OFFSET 3.206381 5.380205 7.586883
                  CHANNELS 3 Zrotation Yrotation Xrotation
                }
                JOINT RightEye
                {
                  OFFSET -3.22244 5.361869 7.558234
                  CHANNELS 3 Zrotation Yrotation Xrotation
                }
              }
            }
          }
          JOINT LeftShoulder
          {
            OFFSET 1.621652 23.237164 5.113413
            CHANNELS 3 Zrotation Yrotation Xrotation
            JOINT LeftArm
            {
              OFFSET 14.919846 2e-06 -5.502326
              CHANNELS 3 Zrotation Yrotation Xrotation
              JOINT LeftForeArm
              {
                OFFSET 28.739307 0.0 -0.002588
                CHANNELS 3 Zrotation Yrotation Xrotation
                JOINT LeftHand
                {
                  OFFSET 27.093981 -1e-06 0.002609
                  CHANNELS 3 Zrotation Yrotation Xrotation
                  JOINT LeftHandThumb1
                  {
                    OFFSET 2.276482 -1.392045 3.191413
                    CHANNELS 3 Zrotation Yrotation Xrotation
                    JOINT LeftHandThumb2
                    {
                      OFFSET 4.012836 -1.828127 1.641654
                      CHANNELS 3 Zrotation Yrotation Xrotation
                      JOINT LeftHandThumb3
                      {
                        OFFSET 2.798515 0.0 -3e-06
                        CHANNELS 3 Zrotation Yrotation Xrotation
                        JOINT LeftHandThumbEnd
                        {
                          OFFSET 3.180793 -4e-06 4e-06
                          CHANNELS 3 Zrotation Yrotation Xrotation
                        }
                      }
                    }
                  }
                  JOINT LeftHandIndex1
                  {
                    OFFSET 3.247555 -0.531998 2.296169
                    CHANNELS 3 Zrotation Yrotation Xrotation
                    JOINT LeftHandIndex2
                    {
                      OFFSET 6.364578 0.01206 0.1786
                      CHANNELS 3 Zrotation Yrotation Xrotation
                      JOINT LeftHandIndex3
                      {
                        OFFSET 3.662364 0.0 0.0
                        CHANNELS 3 Zrotation Yrotation Xrotation
                        JOINT LeftHandIndex4
                        {
                          OFFSET 2.329242 4e-06 4e-06
                          CHANNELS 3 Zrotation Yrotation Xrotation
                          JOINT LeftHandIndexEnd
                          {
                            OFFSET 2.759615 -0.180537 -0.113024
                            CHANNELS 3 Zrotation Yrotation Xrotation
                          }
                        }
                      }
                    }
                  }
                  JOINT LeftHandMiddle1
                  {
                    OFFSET 3.163495 0.240981 1.000332
                    CHANNELS 3 Zrotation Yrotation Xrotation
                    JOINT LeftHandMiddle2
                    {
                      OFFSET 6.19078 -0.259278 -1.002548
                      CHANNELS 3 Zrotation Yrotation Xrotation
                      JOINT LeftHandMiddle3
                      {
                        OFFSET 4.35652 -4e-06 -1e-06
                        CHANNELS 3 Zrotation Yrotation Xrotation
                        JOINT LeftHandMiddle4
                        {
                          OFFSET 2.996877 -8e-06 0.0
                          CHANNELS 3 Zrotation Yrotation Xrotation
                          JOINT LeftHandMiddleEnd
                          {
                            OFFSET 2.304287 -0.294569 -0.031741
                            CHANNELS 3 Zrotation Yrotation Xrotation
                          }
                        }
                      }
                    }
                  }
                  JOINT LeftHandRing1
                  {
                    OFFSET 2.882643 -0.053652 -0.322543
                    CHANNELS 3 Zrotation Yrotation Xrotation
                    JOINT LeftHandRing2
                    {
                      OFFSET 5.854541 -0.486202 -1.373841
                      CHANNELS 3 Zrotation Yrotation Xrotation
                      JOINT LeftHandRing3
                      {
                        OFFSET 4.350578 0.0 3e-06
                        CHANNELS 3 Zrotation Yrotation Xrotation
                        JOINT LeftHandRing4
                        {
                          OFFSET 2.651321 7e-06 2e-06
                          CHANNELS 3 Zrotation Yrotation Xrotation
                          JOINT LeftHandRingEnd
                          {
                            OFFSET 1.936105 0.077687 -7.1e-05
                            CHANNELS 3 Zrotation Yrotation Xrotation
                          }
                        }
                      }
                    }
                  }
                  JOINT LeftHandPinky1
                  {
                    OFFSET 2.8655 -0.310005 -1.600378
                    CHANNELS 3 Zrotation Yrotation Xrotation
                    JOINT LeftHandPinky2
                    {
                      OFFSET 5.087849 -1.331141 -1.77123
                      CHANNELS 3 Zrotation Yrotation Xrotation
                      JOINT LeftHandPinky3
                      {
                        OFFSET 3.070974 4e-06 0.0
                        CHANNELS 3 Zrotation Yrotation Xrotation
                        JOINT LeftHandPinky4
                        {
                          OFFSET 1.549672 0.0 1e-06
                          CHANNELS 3 Zrotation Yrotation Xrotation
                          JOINT LeftHandPinkyEnd
                          {
                            OFFSET 1.944893 -0.157802 0.057219
                            CHANNELS 3 Zrotation Yrotation Xrotation
                          }
                        }
                      }
                    }
                  }
                }
              }
            }
          }
          JOINT RightShoulder
          {
            OFFSET -1.380118 23.180309 5.214158
            CHANNELS 3 Zrotation Yrotation Xrotation
            JOINT RightArm
            {
              OFFSET -15.037196 1.2e-05 -5.545604
              CHANNELS 3 Zrotation Yrotation Xrotation
              JOINT RightForeArm
              {
                OFFSET -28.736639 2e-06 -0.002597
                CHANNELS 3 Zrotation Yrotation Xrotation
                JOINT RightHand
                {
                  OFFSET -27.133619 -0.0 0.002613
                  CHANNELS 3 Zrotation Yrotation Xrotation
                  JOINT RightHandThumb1
                  {
                    OFFSET -2.274032 -1.383988 3.163127
                    CHANNELS 3 Zrotation Yrotation Xrotation
                    JOINT RightHandThumb2
                    {
                      OFFSET -4.011429 -1.827466 1.640914
                      CHANNELS 3 Zrotation Yrotation Xrotation
                      JOINT RightHandThumb3
                      {
                        OFFSET -2.794935 -4e-06 -3e-06
                        CHANNELS 3 Zrotation Yrotation Xrotation
                        JOINT RightHandThumbEnd
                        {
                          OFFSET -3.183852 4e-06 1e-06
                          CHANNELS 3 Zrotation Yrotation Xrotation
                        }
                      }
                    }
                  }
                  JOINT RightHandIndex1
                  {
                    OFFSET -3.253266 -0.520057 2.282866
                    CHANNELS 3 Zrotation Yrotation Xrotation
                    JOINT RightHandIndex2
                    {
                      OFFSET -6.341917 0.012471 0.178266
                      CHANNELS 3 Zrotation Yrotation Xrotation
                      JOINT RightHandIndex3
                      {
                        OFFSET -3.654871 -8e-06 -0.0
                        CHANNELS 3 Zrotation Yrotation Xrotation
                        JOINT RightHandIndex4
                        {
                          OFFSET -2.327586 0.0 1e-06
                          CHANNELS 3 Zrotation Yrotation Xrotation
                          JOINT RightHandIndexEnd
                          {
                            OFFSET -2.76179 -0.180656 -0.113078
                            CHANNELS 3 Zrotation Yrotation Xrotation
                          }
                        }
                      }
                    }
                  }
                  JOINT RightHandMiddle1
                  {
                    OFFSET -3.168106 0.246593 1.00103
                    CHANNELS 3 Zrotation Yrotation Xrotation
                    JOINT RightHandMiddle2
                    {
                      OFFSET -6.180828 -0.258836 -1.000895
                      CHANNELS 3 Zrotation Yrotation Xrotation
                      JOINT RightHandMiddle3
                      {
                        OFFSET -4.348901 0.0 -0.0
                        CHANNELS 3 Zrotation Yrotation Xrotation
                        JOINT RightHandMiddle4
                        {
                          OFFSET -3.00024 -4e-06 -2e-06
                          CHANNELS 3 Zrotation Yrotation Xrotation
                          JOINT RightHandMiddleEnd
                          {
                            OFFSET -2.30252 -0.29437 -0.031706
                            CHANNELS 3 Zrotation Yrotation Xrotation
                          }
                        }
                      }
                    }
                  }
                  JOINT RightHandRing1
                  {
                    OFFSET -2.88569 -0.067952 -0.308858
                    CHANNELS 3 Zrotation Yrotation Xrotation
                    JOINT RightHandRing2
                    {
                      OFFSET -5.854198 -0.48613 -1.373731
                      CHANNELS 3 Zrotation Yrotation Xrotation
                      JOINT RightHandRing3
                      {
                        OFFSET -4.33881 -4e-06 -0.0
                        CHANNELS 3 Zrotation Yrotation Xrotation
                        JOINT RightHandRing4
                        {
                          OFFSET -2.654903 -4e-06 4e-06
                          CHANNELS 3 Zrotation Yrotation Xrotation
                          JOINT RightHandRingEnd
                          {
                            OFFSET -1.933568 0.077527 -5.2e-05
                            CHANNELS 3 Zrotation Yrotation Xrotation
                          }
                        }
                      }
                    }
                  }
                  JOINT RightHandPinky1
                  {
                    OFFSET -2.866425 -0.342796 -1.584145
                    CHANNELS 3 Zrotation Yrotation Xrotation
                    JOINT RightHandPinky2
                    {
                      OFFSET -5.091371 -1.332055 -1.772385
                      CHANNELS 3 Zrotation Yrotation Xrotation
                      JOINT RightHandPinky3
                      {
                        OFFSET -3.062664 -4e-06 1e-06
                        CHANNELS 3 Zrotation Yrotation Xrotation
                        JOINT RightHandPinky4
                        {
                          OFFSET -1.546529 4e-06 -2e-06
                          CHANNELS 3 Zrotation Yrotation Xrotation
                          JOINT RightHandPinkyEnd
                          {
                            OFFSET -1.945119 -0.157718 0.057211
                            CHANNELS 3 Zrotation Yrotation Xrotation
                          }
                        }
                      }
                    }
                  }
                }
              }
            }
          }
        }
      }
    }
    JOINT LeftLeg
    {
      OFFSET 10.043214 -8.434526 2.595655
      CHANNELS 3 Zrotation Yrotation Xrotation
      JOINT LeftShin
      {
        OFFSET -1e-06 -43.221752 -0.802913
        CHANNELS 3 Zrotation Yrotation Xrotation
        JOINT LeftFoot
        {
          OFFSET 1e-06 -42.155094 -3.481523
          CHANNELS 3 Zrotation Yrotation Xrotation
          JOINT LeftToeBase
          {
            OFFSET 0.0 -5.059472 13.231529
            CHANNELS 3 Zrotation Yrotation Xrotation
            JOINT LeftToeEnd
            {
              OFFSET -0.009607 -1.647619 6.513017
              CHANNELS 3 Zrotation Yrotation Xrotation
            }
          }
        }
      }
    }
    JOINT RightLeg
    {
      OFFSET -10.047278 -8.29526 2.620317
      CHANNELS 3 Zrotation Yrotation Xrotation
      JOINT RightShin
      {
        OFFSET 1e-06 -43.362206 -0.805556
        CHANNELS 3 Zrotation Yrotation Xrotation
        JOINT RightFoot
        {
          OFFSET 2e-06 -42.117393 -3.478398
          CHANNELS 3 Zrotation Yrotation Xrotation
          JOINT RightToeBase
          {
            OFFSET -0.0 -5.079609 13.284196
            CHANNELS 3 Zrotation Yrotation Xrotation
            JOINT RightToeEnd
            {
              OFFSET 0.009532 -1.634378 6.460591
              CHANNELS 3 Zrotation Yrotation Xrotation
            }
          }
        }
      }
    }
  }
}
MOTION
Frames: 4
Frame Time: 0.03333333333333333
0.0 0.0 0.0 0.0 -0.0 0.0 0.0 100.0 0.0 0.0 -0.0 0.0 0.0 -0.0 0.0 0.0 -0.0 0.0 0.0 -0.0 0.0 0.0 -0.0 0.0 0.0 -0.0 0.0 -0.0 -0.899998 -12.149938 7.7e-05 -2.2e-05 6e-06 -0.0 -0.0 -0.0 -0.0 -0.0 -0.0 -0.0 -0.0 -0.0 0.0 -0.0 0.0 -53.387947 -10.462402 5.069675 -2.14331 0.345981 0.003826 0.0 0.0 -0.0 -5.882106 9.861284 0.70259 -10.936873 -0.360575 7.156205 0.0 8.774823 -1e-06 -1e-06 -0.0 -0.0 -1.844034 2.498504 -2.507278 -10.163599 4.678944 4.621108 -20.976027 -4e-06 2e-06 -21.226292 2.451696 -3.594 0.0 -6e-06 -0.0 -1.362682 2.240797 -0.746323 -21.334913 0.584909 3.008323 -13.821213 -3e-06 2e-06 -23.887171 -0.249079 -0.839482 -1e-06 -0.0 -0.0 -0.294025 1.679686 0.833255 -14.218212 0.093214 1.30058 -34.212051 -0.287565 0.967171 -20.033215 0.964536 1.212845 1e-06 0.0 -0.0 -3.44039 0.788233 0.501655 -15.928189 -3.167309 2.999707 -6.338827 -1e-06 1e-06 -18.123449 3.648181 -4.90567 -4e-06 0.0 -2e-06 0.0 -0.0 0.0 111.426811 27.706366 37.234535 34.705791 18.477484 3.715975 0.0 0.0 0.0 2.243543 -5.255035 -3.180157 14.282891 -0.826594 6.952502 -3e-06 -12.690601 -0.0 0.0 -1e-06 -0.0 1.665666 -1.955921 -2.878299 4.7278 -4.170587 4.993924 11.020526 3e-06 -1e-06 12.109052 -3.735713 -2.866783 -0.0 0.0 -0.0 1.291984 -1.928548 -1.498087 14.800127 0.567469 3.865607 14.24257 -1.341736 -6.660658 19.631969 0.143927 -0.648244 -0.0 0.0 -0.0 0.353028 -1.51115 -0.03194 20.222794 3.684311 2.316629 18.787275 5e-06 0.0 10.751627 -0.479868 1.397906 1e-06 -1e-06 1e-06 3.273807 0.305947 -0.580111 21.486818 11.830376 2.266134 8.162928 2e-06 1e-06 18.399084 -3.798984 -4.940573 2e-06 1e-06 -1e-06 86.365303 -13.670341 12.428481 1.2307 -0.065278 -3.370676 -0.0 0.0 -0.0 -0.0 0.0 -0.0 0.0 0.0 2e-06 0.0 -0.0 0.0 0.0 -0.0 0.0 0.0 -0.0 0.0 0.0 -0.0 0.0 0.0 -0.0 -1e-06 
0.0 0.0 0.0 0.0 -0.0 0.0 -0.647357 99.504295 -0.481911 -0.49772 0.785621 0.732501 -0.082901 0.230103 -0.964357 -0.208513 -0.153915 -0.672533 0.614999 0.278131 1.479588 0.638525 -0.193331 -0.243457 -0.725632 -1.162382 -0.112827 0.596094 -2.398383 -13.113167 7.7e-05 -2.2e-05 6e-06 -0.020618 -0.094072 0.011798 0.004388 -0.359563 -0.786198 -0.078246 0.177443 -0.776641 1.646433 -1.50805 0.469307 -54.933723 -9.243667 0.989573 -2.904496 -1.511842 0.139245 0.928977 -1.212736 -0.344194 -5.882115 9.861292 0.702591 -10.936885 -0.360575 7.156212 2e-06 8.774832 0.0 -1.428809 1.08709 0.590879 -1.844035 2.498507 -2.50728 -10.163611 4.678948 4.621112 -20.976049 -5e-06 2e-06 -21.226313 2.451697 -3.594002 0.0 -6e-06 -0.0 -1.362683 2.240799 -0.746324 -21.33494 0.584909 3.008326 -13.821231 -3e-06 2e-06 -23.887201 -0.24908 -0.839483 -3.833658 -0.113649 0.098631 -0.294023 1.679688 0.833257 -14.218225 0.093214 1.300581 -34.21209 -0.287567 0.967171 -20.033236 0.964536 1.212845 2e-06 0.0 -0.0 -3.440391 0.788234 0.501656 -15.928203 -3.167312 2.999709 -6.338834 -1e-06 1e-06 -18.123466 3.648183 -4.905674 -4e-06 0.0 -2e-06 1.081056 1.133337 0.476465 108.184067 27.617203 39.02668 32.263451 20.597626 4.209772 1.435244 -1.285359 -1.757715 2.243543 -5.255038 -3.18016 14.282896 -0.826594 6.952506 -2e-06 -12.690607 -0.0 0.995137 -1.425471 0.634373 1.665668 -1.955921 -2.8783 4.7278 -4.170589 4.993927 11.020531 4e-06 -2e-06 12.109056 -3.735716 -2.866784 -0.0 -0.0 -1e-06 1.291986 -1.92855 -1.498091 14.800136 0.567468 3.86561 14.242579 -1.341736 -6.660662 19.631975 0.143927 -0.648246 3.373003 -0.414165 -0.305046 0.35303 -1.511152 -0.03194 20.222801 3.684312 2.316631 18.787283 5e-06 -1e-06 10.751633 -0.479868 1.397907 1e-06 -1e-06 -0.0 3.273808 0.305947 -0.580113 21.48682 11.830381 2.266133 8.16293 2e-06 1e-06 18.399088 -3.798987 -4.940577 3e-06 1e-06 0.0 87.910828 -9.919821 11.923567 1.286138 -0.359961 -1.253756 -0.949588 -0.98566 -1.334452 0.332223 -0.119617 -0.547376 -0.0 0.0 2e-06 0.926711 -2.758219 -5.168485 -0.080924 0.153077 8.345565 -0.918656 2.926571 -3.496395 -0.118354 0.141014 -0.034201 -0.0 0.0 -1e-06 
0.0 0.0 0.0 0.0 -0.0 0.0 -1.224632 99.60833 -1.885809 -0.643069 2.562099 1.586384 -0.579816 0.387108 -1.507955 -0.446517 -0.21942 -1.033522 0.834383 0.1288 2.527396 1.010375 -0.417545 -1.399145 -0.961779 -1.972046 -0.388678 1.389626 -3.57984 -13.346725 7.7e-05 -2.3e-05 6e-06 -0.051173 -0.150237 0.015899 0.015554 -0.686844 -1.525664 -0.161537 0.406678 -1.520429 2.79245 -2.621117 0.538946 -56.961807 -9.428861 -0.905966 -2.867553 -4.349894 0.196884 1.18418 -2.191781 -3.159451 -5.882106 9.861283 0.702591 -10.93687 -0.360575 7.156204 1e-06 8.774822 0.0 -2.960955 2.592757 0.983574 -1.844032 2.498504 -2.507277 -10.163597 4.678944 4.621108 -20.976021 -3e-06 3e-06 -21.226282 2.451697 -3.593998 1e-06 -6e-06 -1e-06 -1.362682 2.240797 -0.746323 -21.334911 0.584909 3.008322 -13.821213 -3e-06 3e-06 -23.887167 -0.249078 -0.839481 -7.567499 0.249986 0.141894 -0.294025 1.679687 0.833256 -14.218207 0.093215 1.30058 -34.212048 -0.287564 0.96717 -20.033211 0.964536 1.212843 2e-06 0.0 0.0 -3.440387 0.788233 0.501656 -15.928183 -3.167309 2.999707 -6.338825 -1e-06 1e-06 -18.123444 3.648182 -4.905667 -4e-06 0.0 -2e-06 1.729722 2.570057 0.981219 104.78495 27.060982 39.083668 29.822123 24.478121 5.621272 2.277107 -3.547711 -4.165224 2.243541 -5.255036 -3.180159 14.282885 -0.826593 6.952502 -2e-06 -12.6906 -2e-06 2.59743 -2.543276 1.105309 1.665665 -1.955922 -2.878299 4.727797 -4.170585 4.993923 11.020522 3e-06 -2e-06 12.109051 -3.735713 -2.866786 -0.0 -0.0 0.0 1.291985 -1.928551 -1.498089 14.800122 0.567469 3.865608 14.242566 -1.341736 -6.660657 19.63196 0.143927 -0.648243 6.821766 -0.587549 -0.761243 0.353028 -1.511151 -0.031941 20.222784 3.684309 2.316631 18.787268 5e-06 1e-06 10.751623 -0.479868 1.397906 1e-06 -0.0 -0.0 3.273806 0.305947 -0.580112 21.486803 11.83037 2.266133 8.162924 2e-06 2e-06 18.399075 -3.798983 -4.940574 3e-06 -0.0 -1e-06 88.141289 -7.273944 11.364523 1.38509 -0.120232 2.639487 -1.432866 2.9368 -5.754673 0.255882 -0.270868 -1.250297 0.0 0.0 2e-06 1.484453 -5.375186 -6.566642 -0.107003 0.111057 7.651191 -1.721302 5.544367 -1.659759 -0.242104 0.183048 0.190143 0.0 0.0 -1e-06 
0.0 0.0 0.0 0.0 -0.0 0.0 -1.71515 99.537788 -3.302392 -0.540974 4.643585 2.238417 -1.078651 0.404517 -1.906586 -0.743444 -0.300899 -1.41887 0.751839 -0.271351 3.420845 1.406815 -0.513521 -2.568877 -1.102656 -2.797149 -0.614372 1.741412 -4.581341 -13.063759 7.7e-05 -2.2e-05 6e-06 -0.051363 -0.136516 0.013457 0.054859 -0.940448 -2.27904 -0.193131 0.684728 -2.283526 3.931687 -3.367317 1.089887 -58.335812 -10.214201 -2.916894 -2.46754 -6.501618 0.180181 1.672853 -2.275697 -6.926194 -5.882104 9.861286 0.702591 -10.936868 -0.360575 7.156204 -0.0 8.774825 -1e-06 -4.383527 3.7289 1.315687 -1.844033 2.498504 -2.507277 -10.163599 4.678946 4.621109 -20.976021 -4e-06 3e-06 -21.226284 2.451698 -3.593999 1e-06 -6e-06 -0.0 -1.362682 2.240798 -0.746323 -21.334911 0.58491 3.008322 -13.821213 -1e-06 1e-06 -23.887167 -0.24908 -0.839484 -11.614904 0.51145 0.082797 -0.294024 1.679688 0.833257 -14.218207 0.093215 1.30058 -34.212048 -0.287564 0.967171 -20.033209 0.964536 1.212844 2e-06 1e-06 0.0 -3.440387 0.788234 0.501656 -15.928185 -3.167309 2.999707 -6.338825 -1e-06 1e-06 -18.123444 3.648184 -4.905669 -5e-06 0.0 -2e-06 2.185344 3.570559 1.827512 102.525146 27.073992 39.37376 27.196592 28.415386 6.575523 2.314795 -5.911534 -6.568733 2.243543 -5.25504 -3.180161 14.282895 -0.826591 6.952503 -3e-06 -12.69061 -3e-06 4.139671 -3.796576 1.4741 1.665667 -1.955921 -2.878302 4.7278 -4.170587 4.993923 11.020529 5e-06 -3e-06 12.109055 -3.735718 -2.866786 0.0 0.0 -1e-06 1.291985 -1.92855 -1.498089 14.800134 0.567472 3.865607 14.242578 -1.341734 -6.660665 19.631973 0.143932 -0.648248 10.449821 -0.811488 -1.207269 0.353029 -1.51115 -0.031941 20.222797 3.684315 2.316627 18.787275 8e-06 -1e-06 10.751631 -0.479865 1.397904 0.0 -1e-06 1e-06 3.273806 0.305947 -0.580111 21.48682 11.830381 2.266133 8.162929 3e-06 -0.0 18.399084 -3.798981 -4.94058 4e-06 -0.0 -2e-06 87.796661 -4.001857 11.030671 1.263456 0.283139 5.46376 -3.131874 6.023498 -10.289999 0.284045 -0.431374 -1.907682 -0.0 0.0 2e-06 1.900018 -7.236958 -9.06389 -0.140096 0.030413 9.69712 -2.502963 6.793824 -1.609847 -0.345241 0.233901 0.364559 0.0 -0.0 -1e-06 
